<?xml version="1.0" encoding="utf-8"?>
<!-- Generator: Adobe Illustrator 16.0.0, SVG Export Plug-In . SVG Version: 6.00 Build 0)  -->
<!DOCTYPE svg PUBLIC "-//W3C//DTD SVG 1.1//EN" "http://www.w3.org/Graphics/SVG/1.1/DTD/svg11.dtd">
<svg version="1.1" id="Layer_1" xmlns="http://www.w3.org/2000/svg" xmlns:xlink="http://www.w3.org/1999/xlink" x="0px" y="0px"
	 width="150px" height="150px" viewBox="0 0 150 150" enable-background="new 0 0 150 150" xml:space="preserve">
<g id="Layer_1_1_">
	<g>
		
			<image overflow="visible" opacity="0.75" enable-background="new    " width="500" height="500" xlink:href="B4E2CBDF.png"  transform="matrix(0.24 0 0 0.24 22 22)">
		</image>
		<g>
			
				<linearGradient id="SVGID_1_" gradientUnits="userSpaceOnUse" x1="362.8223" y1="-301.8198" x2="299.1818" y2="-238.1794" gradientTransform="matrix(1 0 0 -1 -256 -195)">
				<stop  offset="0" style="stop-color:#000000"/>
				<stop  offset="1" style="stop-color:#FFFFFF;stop-opacity:0.5"/>
			</linearGradient>
			<circle fill="url(#SVGID_1_)" cx="75" cy="75" r="45"/>
		</g>
	</g>
</g>
<g id="Triangle">
	<g enable-background="new    ">
		<path d="M71.3,89.648l-0.2-2.6c-0.6-5.4,1.2-11.301,6.201-17.301c4.5-5.301,7-9.201,7-13.701c0-5.101-3.2-8.5-9.5-8.601
			c-3.6,0-7.601,1.2-10.101,3.1l-2.4-6.3c3.3-2.4,9.001-4,14.301-4c11.501,0,16.701,7.101,16.701,14.701
			c0,6.8-3.801,11.701-8.601,17.401c-4.4,5.2-6,9.601-5.701,14.701l0.101,2.6H71.3z M69.1,103.649c0-3.7,2.5-6.3,6-6.3
			c3.5,0,5.9,2.6,5.9,6.3c0,3.501-2.299,6.2-6,6.2C71.5,109.85,69.1,107.15,69.1,103.649z"/>
	</g>
</g>
</svg>
