<?xml version="1.0" encoding="utf-8"?>
<!-- Generator: Adobe Illustrator 16.0.0, SVG Export Plug-In . SVG Version: 6.00 Build 0)  -->
<!DOCTYPE svg PUBLIC "-//W3C//DTD SVG 1.1//EN" "http://www.w3.org/Graphics/SVG/1.1/DTD/svg11.dtd">
<svg version="1.1" xmlns="http://www.w3.org/2000/svg" xmlns:xlink="http://www.w3.org/1999/xlink" x="0px" y="0px" width="150px"
	 height="150px" viewBox="0 0 150 150" enable-background="new 0 0 150 150" xml:space="preserve">
<g id="Layer_1">
	<g>
		
			<image overflow="visible" opacity="0.75" width="500" height="500" xlink:href="1A6FF6F.png"  transform="matrix(0.24 0 0 0.24 22 22)">
		</image>
		<g>
			<linearGradient id="SVGID_1_" gradientUnits="userSpaceOnUse" x1="106.8193" y1="106.8193" x2="43.1804" y2="43.1804">
				<stop  offset="0" style="stop-color:#000000"/>
				<stop  offset="1" style="stop-color:#FFFFFF;stop-opacity:0.5"/>
			</linearGradient>
			<circle fill="url(#SVGID_1_)" cx="75" cy="75" r="45"/>
		</g>
	</g>
	<title>personnage</title>
</g>
<g id="Thumbup">
	<g>
		<title>Layer 1</title>
		<g id="layer1">
			<g id="g9726">
				<g id="g5713">
					<path id="rect9675" fill="#010101" d="M72.233,34.13c-2.769,0.239-5.149,2.707-5.609,6.017l-0.51,3.773
						c-0.103,0.181-0.217,0.351-0.307,0.544L55.949,65.61c-0.399,0.855-0.633,1.751-0.714,2.618h-5.338
						c-3.495,0-6.323,2.794-6.323,6.289v19.956c0,3.494,2.829,6.323,6.323,6.323h9.281c2.124,1.922,4.919,3.094,8.023,3.094h12.646
						c6.641,0,11.967-5.327,11.967-11.967V71.355c0-6.64-5.326-11.967-11.967-11.967h-3.91l2.414-17.542
						c0.525-3.783-1.643-7.204-4.895-7.683C73.049,34.104,72.628,34.095,72.233,34.13L72.233,34.13z"/>
					<path id="rect9623-6" fill="#010101" d="M104.24,64.94v0.855c0,3.071-2.256,5.561-5.041,5.561H82.135
						c-2.783,0-5.041-2.49-5.041-5.561V64.94c0-3.071,2.258-5.561,5.041-5.561h17.064C101.984,59.379,104.24,61.869,104.24,64.94z"
						/>
					<path id="rect9623-6-5" fill="#010101" d="M108.426,76.774L108.426,76.774c0,3.438-2.43,6.226-5.428,6.226H82.523
						c-3,0-5.43-2.788-5.43-6.226l0,0c0-3.439,2.43-6.228,5.43-6.228h20.475C105.996,70.547,108.426,73.335,108.426,76.774z"/>
					<path id="rect9671" fill="#010101" d="M104.959,87.857L104.959,87.857c0,3.393-2.432,6.143-5.43,6.143H82.523
						c-3,0-5.43-2.75-5.43-6.143l0,0c0-3.392,2.43-6.142,5.43-6.142h17.006C102.527,81.716,104.959,84.466,104.959,87.857z"/>
					<path id="rect9673" fill="#010101" d="M101.252,98.313L101.252,98.313c0,2.999-2.432,5.43-5.43,5.43H82.523
						c-3,0-5.43-2.431-5.43-5.43l0,0c0-2.998,2.43-5.429,5.43-5.429h13.299C98.82,92.884,101.252,95.314,101.252,98.313z"/>
				</g>
			</g>
		</g>
	</g>
</g>
</svg>
