<?xml version="1.0" encoding="utf-8"?>
<!-- Generator: Adobe Illustrator 16.0.0, SVG Export Plug-In . SVG Version: 6.00 Build 0)  -->
<!DOCTYPE svg PUBLIC "-//W3C//DTD SVG 1.1//EN" "http://www.w3.org/Graphics/SVG/1.1/DTD/svg11.dtd">
<svg version="1.1" xmlns="http://www.w3.org/2000/svg" xmlns:xlink="http://www.w3.org/1999/xlink" x="0px" y="0px" width="150px"
	 height="150px" viewBox="0 0 150 150" enable-background="new 0 0 150 150" xml:space="preserve">
<g id="Button">
	<linearGradient id="SVGID_1_" gradientUnits="userSpaceOnUse" x1="106.8203" y1="105.8203" x2="43.1807" y2="42.1807">
		<stop  offset="0" style="stop-color:#000000"/>
		<stop  offset="1" style="stop-color:#FFFFFF;stop-opacity:0.5"/>
	</linearGradient>
	<circle fill="url(#SVGID_1_)" cx="75" cy="74" r="45"/>
	<radialGradient id="SVGID_2_" cx="79" cy="79" r="55" gradientUnits="userSpaceOnUse">
		<stop  offset="0.8" style="stop-color:#231F20"/>
		<stop  offset="1" style="stop-color:#FFFFFF;stop-opacity:0"/>
	</radialGradient>
	<circle opacity="0.5" fill="none" stroke="url(#SVGID_2_)" stroke-width="20" stroke-miterlimit="10" cx="79" cy="79" r="45"/>
	<circle fill="#FFFFFF" cx="75" cy="74" r="45"/>
	<linearGradient id="SVGID_3_" gradientUnits="userSpaceOnUse" x1="106.8203" y1="105.8203" x2="43.1807" y2="42.1807">
		<stop  offset="0" style="stop-color:#000000"/>
		<stop  offset="1" style="stop-color:#FFFFFF;stop-opacity:0.5"/>
	</linearGradient>
	<circle fill="url(#SVGID_3_)" cx="75" cy="74" r="45"/>
</g>
<g id="Question">
	<g>
		<path d="M71.3,89.648l-0.2-2.6c-0.6-5.4,1.2-11.301,6.201-17.301c4.5-5.3,7-9.201,7-13.701c0-5.101-3.2-8.5-9.5-8.601
			c-3.6,0-7.601,1.2-10.101,3.1l-2.4-6.3c3.3-2.4,9.001-4,14.301-4c11.501,0,16.701,7.101,16.701,14.701
			c0,6.8-3.801,11.701-8.601,17.401c-4.4,5.2-6,9.601-5.701,14.701l0.101,2.6H71.3z M69.1,103.65c0-3.701,2.5-6.301,6-6.301
			c3.5,0,5.9,2.6,5.9,6.301c0,3.5-2.299,6.199-6,6.199C71.5,109.85,69.1,107.15,69.1,103.65z"/>
	</g>
</g>
</svg>
