<?xml version="1.0" encoding="utf-8"?>
<!-- Generator: Adobe Illustrator 16.0.0, SVG Export Plug-In . SVG Version: 6.00 Build 0)  -->
<!DOCTYPE svg PUBLIC "-//W3C//DTD SVG 1.1//EN" "http://www.w3.org/Graphics/SVG/1.1/DTD/svg11.dtd">
<svg version="1.1" xmlns="http://www.w3.org/2000/svg" xmlns:xlink="http://www.w3.org/1999/xlink" x="0px" y="0px" width="150px"
	 height="150px" viewBox="0 0 150 150" enable-background="new 0 0 150 150" xml:space="preserve">
<g id="Button">
	<linearGradient id="SVGID_1_" gradientUnits="userSpaceOnUse" x1="108.4766" y1="105.5703" x2="44.837" y2="41.9307">
		<stop  offset="0" style="stop-color:#000000"/>
		<stop  offset="1" style="stop-color:#FFFFFF;stop-opacity:0.5"/>
	</linearGradient>
	<circle fill="url(#SVGID_1_)" cx="76.656" cy="73.75" r="45"/>
	<radialGradient id="SVGID_2_" cx="80.6563" cy="78.75" r="55" gradientUnits="userSpaceOnUse">
		<stop  offset="0.8" style="stop-color:#231F20"/>
		<stop  offset="1" style="stop-color:#FFFFFF;stop-opacity:0"/>
	</radialGradient>
	
		<circle opacity="0.5" fill="none" stroke="url(#SVGID_2_)" stroke-width="20" stroke-miterlimit="10" cx="80.656" cy="78.75" r="45"/>
	<circle fill="#FFFFFF" cx="76.656" cy="73.75" r="45"/>
	<linearGradient id="SVGID_3_" gradientUnits="userSpaceOnUse" x1="108.4766" y1="105.5703" x2="44.837" y2="41.9307">
		<stop  offset="0" style="stop-color:#000000"/>
		<stop  offset="1" style="stop-color:#FFFFFF;stop-opacity:0.5"/>
	</linearGradient>
	<circle fill="url(#SVGID_3_)" cx="76.656" cy="73.75" r="45"/>
</g>
<g id="Layer_1">
	<g>
		<path d="M68.146,66.113l-5.908,23.335c1.403,0.205,2.528,0.308,3.375,0.308c1.286,0,2.878-0.22,4.778-0.659l-0.438,2.153
			c-1.961,0.41-3.483,0.615-4.566,0.615c-1.142,0-2.825-0.104-5.049-0.308c-1.961-0.205-3.585-0.308-4.873-0.308
			c-2.341,0-5.049,0.336-8.122,1.011l0.659-2.461c3.22-0.819,5.314-1.626,6.28-2.417c1.464-1.26,2.59-3.472,3.381-6.636
			l6.144-24.565c0.761-3.135,1.142-4.98,1.142-5.537c0-0.527-0.184-0.923-0.549-1.187c-0.366-0.264-1.09-0.38-2.172-0.352
			l0.57-2.109c2.949-0.029,6.481-0.57,10.597-1.623c-0.353,1.114-0.807,2.754-1.364,4.921l-3.3,12.961
			c1.406,0.293,2.594,0.439,3.562,0.439c3.665,0,6.803-1.281,9.411-3.845c2.609-2.563,3.915-5.603,3.915-9.119
			c0-2.725-1.047-4.966-3.139-6.724c-2.093-1.758-4.938-2.637-8.537-2.637c-4.595,0-9.087,1.114-13.476,3.34
			c-4.39,2.227-7.682,4.988-9.876,8.284c-2.195,3.296-3.292,6.746-3.292,10.349c0,2.725,1.127,5.069,3.384,7.031
			c1.143,0.967,1.846,1.67,2.109,2.109s0.396,0.908,0.396,1.406c0,0.615-0.229,1.15-0.685,1.604
			c-0.457,0.455-1.009,0.681-1.656,0.681c-1.59,0-3.003-0.923-4.239-2.769c-1.59-2.402-2.385-5.361-2.385-8.877
			c0-4.511,1.245-8.716,3.735-12.612c2.49-3.896,6.262-7.119,11.316-9.668s10.378-3.823,15.974-3.823
			c5.215,0,9.507,0.982,12.876,2.944c3.369,1.963,5.054,4.863,5.054,8.701c0,3.604-1.544,6.958-4.631,10.063
			c-3.087,3.105-7.337,5.098-12.75,5.977c1.346,2.696,2.209,4.512,2.589,5.449c0.614,1.582,1.551,4.248,2.809,7.998
			c2.957,8.784,6.018,14.971,9.18,18.561c2.343,2.626,4.876,3.939,7.6,3.939c2.811,0,4.611-1.268,5.402-3.801
			c0.468-1.603,0.907-2.593,1.317-2.972c0.557-0.524,1.186-0.786,1.889-0.786s1.295,0.248,1.779,0.747
			c0.482,0.498,0.725,1.099,0.725,1.802c0,1.816-0.996,3.545-2.987,5.186s-4.554,2.461-7.688,2.461
			c-2.841,0-5.558-0.688-8.148-2.061c-2.593-1.375-5.111-3.625-7.557-6.754c-2.444-3.128-4.575-6.884-6.391-11.269
			c-0.906-2.197-2.237-6.226-3.992-12.085c-1.052-3.574-1.71-5.713-1.973-6.416l-1.082-0.088
			C69.011,66.025,68.637,66.055,68.146,66.113z"/>
	</g>
</g>
</svg>
