<?xml version="1.0" encoding="UTF-8"?>
<svg width="588.66876" height="677.62628" xmlns="http://www.w3.org/2000/svg">
 <title>Custom check mark</title>
 <metadata id="metadata7">image/svg+xml</metadata>
 <g>
  <title>Layer 1</title>
  <g id="layer1">
   <path d="m164.985565,341.868774c0.014465,11.278564 2.893951,22.235107 5.292587,33.171204c8.163269,34.883789 20.679916,68.418213 34.08107,101.565491c12.73114,30.256042 25.519867,60.580139 46.502594,85.835876c31.230743,-44.402527 -199.257065,147.059692 -144.558479,68.279053c11.929314,-20.732056 25.09922,-40.682739 37.880058,-60.889648c38.505722,-62.077759 78.465759,-123.231506 117.9431,-184.692688c61.129364,-93.891174 121.787628,-188.239105 170.947968,-289.052925c4.563843,-10.657127 9.127686,-21.31427 13.691528,-31.971397l141.902771,-64.113739c-6.82251,11.82695 -13.64502,23.653879 -20.46759,35.48082c-57.620544,97.401138 -117.910095,193.204575 -174.388275,291.279922c-31.314667,56.624603 -62.006836,113.613708 -90.059692,171.941101c-9.873596,19.44873 -20.595734,38.35968 -31.066162,57.471924c-27.236206,62.987427 -141.393356,169.079651 -179.226746,97.632324c-10.714279,-32.024902 -21.542259,-64.091614 -36.060917,-94.648254c-14.739479,-32.379761 -30.371981,-64.336365 -45.41636,-96.574921c-5.00673,-10.728973 -8.52385,-21.879852 -11.98302,-33.188263l164.985565,-87.525879z" id="path3161" fill="#000000" opacity="0.859873"/>
  </g>
 </g>
</svg>