<?xml version="1.0" encoding="utf-8"?>
<!-- Generator: Adobe Illustrator 16.0.0, SVG Export Plug-In . SVG Version: 6.00 Build 0)  -->
<!DOCTYPE svg PUBLIC "-//W3C//DTD SVG 1.1//EN" "http://www.w3.org/Graphics/SVG/1.1/DTD/svg11.dtd">
<svg version="1.1" id="Layer_1" xmlns="http://www.w3.org/2000/svg" xmlns:xlink="http://www.w3.org/1999/xlink" x="0px" y="0px"
	 width="640px" height="480px" viewBox="0 0 640 480" enable-background="new 0 0 640 480" xml:space="preserve">
<title>personnage</title>
<g>
	<title>Layer 1</title>
	<g id="layer1">
		<g id="g9726">
			<g id="g5713">
				<path id="rect9675" stroke="#FFFFFF" stroke-width="1.7432" d="M281.056,8.769c-18.455,1.581-34.328,17.853-37.396,39.686
					l-3.399,24.888c-0.683,1.196-1.44,2.315-2.04,3.587l-65.726,139.459c-2.66,5.637-4.215,11.549-4.759,17.265h-35.583
					c-23.299,0-42.155,18.43-42.155,41.479v131.612c0,23.049,18.856,41.703,42.155,41.703h61.873
					c14.163,12.679,32.795,20.403,53.487,20.403h84.31c44.267,0,79.777-35.13,79.777-78.922V254.281
					c0-43.792-35.511-78.922-79.777-78.922h-26.064l16.091-115.694c3.506-24.952-10.953-47.51-32.636-50.672
					C286.504,8.598,283.692,8.543,281.056,8.769L281.056,8.769z"/>
				<path id="rect9623-6" stroke="#FFFFFF" stroke-width="1.7717" d="M494.445,209.711v5.167c0,18.563-15.048,33.61-33.61,33.61
					H347.074c-18.563,0-33.61-15.048-33.61-33.61v-5.167c0-18.563,15.048-33.61,33.61-33.61h113.761
					C479.397,176.102,494.445,191.149,494.445,209.711z"/>
				<path id="rect9623-6-5" stroke="#FFFFFF" stroke-width="1.7717" d="M522.35,285.75L522.35,285.75
					c0,19.988-16.204,36.193-36.192,36.193h-136.5c-19.989,0-36.193-16.205-36.193-36.193l0,0c0-19.99,16.204-36.193,36.193-36.193
					h136.5C506.146,249.557,522.35,265.76,522.35,285.75z"/>
				<path id="rect9671" stroke="#FFFFFF" stroke-width="1.7717" d="M499.229,359.204L499.229,359.204
					c0,19.989-16.204,36.193-36.192,36.193H349.657c-19.989,0-36.193-16.204-36.193-36.193l0,0
					c0-19.989,16.204-36.193,36.193-36.193h113.379C483.024,323.011,499.229,339.215,499.229,359.204z"/>
				<path id="rect9673" stroke="#FFFFFF" stroke-width="1.7717" d="M474.514,432.658L474.514,432.658
					c0,19.99-16.204,36.193-36.193,36.193h-88.664c-19.988,0-36.192-16.203-36.192-36.193l0,0c0-19.988,16.204-36.193,36.192-36.193
					h88.664C458.31,396.465,474.514,412.67,474.514,432.658z"/>
			</g>
		</g>
	</g>
</g>
<path d="M344.468,391.402c0,5.005-5.373,9.063-12,9.063H203.861c-6.627,0-12-4.058-12-9.063V186.165c0-5.005,5.373-9.063,12-9.063
	h128.606c6.627,0,12,4.058,12,9.063V391.402z"/>
<path d="M268.165,336.277c0-6.24,5.373-11.301,12-11.301h52.303c6.627,0,12,5.061,12,11.301v117.588c0,6.24-5.373,11.301-12,11.301
	h-52.303c-6.627,0-12-5.061-12-11.301V336.277z"/>
</svg>
